# xmcd CD database file
#
# Track frame offsets:
#	150
#	13283
#	26501
#	39684
#	56716
#	69854
#	90434
#	101892
#	116533
#	136451
#	154622
#	167083
#
# Disc length: 2564 seconds
#
# Revision: 0
# Processed by: cddbd v1.5.2PL0 Copyright (c) Steve Scherf et al.
# Submitted via: CDex 1.70beta2
#
DISCID=9b0a020c
DTITLE=L.R.Phoenix and Mr. Mo'Hell - Jumper On The Line
DYEAR=2010
DGENRE=Blues
TTITLE0=Shake 'Em On Down
TTITLE1=Don't Want No Skinny Woman
TTITLE2=I Swapped My Wife For A Used Coat
TTITLE3=Boggy Pine
TTITLE4=Freight Train
TTITLE5=Keep Your Hands Off Of My Woman
TTITLE6=Jumper On The Line
TTITLE7=We Got A Thing Going On
TTITLE8=Going To Memphis
TTITLE9=90 Days In Jail
TTITLE10=Truely
TTITLE11=Watermelon Skies
EXTD=YEAR: 2010
EXTT0=
EXTT1=
EXTT2=
EXTT3=
EXTT4=
EXTT5=
EXTT6=
EXTT7=
EXTT8=
EXTT9=
EXTT10=
EXTT11=
PLAYORDER=
